<?xml version="1.0" encoding="iso-8859-1"?>
<!-- Uploaded to: SVG Repo, www.svgrepo.com, Generator: SVG Repo Mixer Tools -->
<svg height="800px" width="800px" version="1.1" id="Layer_1" xmlns="http://www.w3.org/2000/svg" xmlns:xlink="http://www.w3.org/1999/xlink" 
	 viewBox="0 0 512 512" xml:space="preserve">
<path style="fill:#FFEAB2;" d="M256,247.841c-75.646,0-131.042-72.254-111.105-145.275c2.219-8.127,9.602-13.765,18.027-13.765
	H349.08c8.425,0,15.808,5.637,18.027,13.765C387.03,175.544,331.687,247.841,256,247.841z"/>
<path style="fill:#FFE08C;" d="M367.107,102.565c-2.219-8.127-9.602-13.765-18.027-13.765H256v159.04
	C331.646,247.841,387.043,175.586,367.107,102.565z"/>
<path style="fill:#60BFE1;" d="M408.787,512H103.214c-10.32,0-18.686-8.366-18.686-18.686v-59.264
	c0-94.55,76.922-171.471,171.471-171.471s171.471,76.922,171.471,171.471v59.264C427.473,503.634,419.106,512,408.787,512z"/>
<path style="fill:#2E9ADA;" d="M256,262.579V512h152.786c10.319,0,18.686-8.366,18.686-18.686v-59.264
	C427.473,339.501,350.551,262.579,256,262.579z"/>
<path style="fill:#60BFE1;" d="M371.291,88.8h-8.866c-15.18-36.81-48.583-63.195-87.739-69.648v-0.466
	C274.686,8.366,266.319,0,256,0c-10.32,0-18.686,8.366-18.686,18.686v0.466c-39.155,6.453-72.559,32.838-87.739,69.648h-8.866
	c-10.32,0-18.686,8.366-18.686,18.686s8.366,18.686,18.686,18.686h22.201c0.004,0,0.007,0.001,0.01,0.001h186.158
	c0.004,0,0.008-0.001,0.01-0.001h22.201c10.319,0,18.686-8.366,18.686-18.686C389.977,97.166,381.61,88.8,371.291,88.8z"/>
<g>
	<path style="fill:#C7E5F4;" d="M255.996,451.848c-10.32,0-18.686-8.366-18.686-18.686v-20.676c0-10.319,8.366-18.686,18.686-18.686
		s18.686,8.366,18.686,18.686v20.676C274.682,443.482,266.317,451.848,255.996,451.848z"/>
	<path style="fill:#C7E5F4;" d="M165.503,512h-62.288c-10.32,0-18.686-8.366-18.686-18.686v-59.264
		c0-22.077,4.149-43.59,12.334-63.943c3.39-8.428,12.35-13.196,21.233-11.304c53.394,11.383,83.641,79.25,65.292,139.92
		C181.004,506.607,173.738,512,165.503,512z"/>
</g>
<path style="fill:#FFEAB2;" d="M355.676,294.605c-16.994-12.182-35.996-21.279-57.278-26.718l-0.087,0.001
	c-47.503-12.041-99.637-3.682-142.076,26.784c9.592,9.575,55,54.899,63.923,63.806c9.883,9.882,22.864,14.823,35.844,14.823
	c12.98,0,25.962-4.94,35.844-14.823v-0.001C346.202,304.12,346.968,303.323,355.676,294.605z"/>
<path style="fill:#2E9ADA;" d="M371.291,88.8h-8.866c-15.18-36.81-48.583-63.195-87.739-69.648v-0.466
	C274.686,8.366,266.319,0,256,0v126.172h93.08c0.004,0,0.007-0.001,0.01-0.001h22.201c10.319,0,18.686-8.366,18.686-18.686
	S381.61,88.8,371.291,88.8z"/>
<g>
	<path style="fill:#60BFE1;" d="M256,393.8v58.048c10.318-0.003,18.682-8.367,18.682-18.686v-20.676
		C274.682,402.167,266.318,393.802,256,393.8z"/>
	<path style="fill:#60BFE1;" d="M408.778,512H346.49c-8.237,0-15.503-5.394-17.886-13.279
		c-18.454-61.039,12.223-128.603,65.293-139.917c8.892-1.892,17.844,2.875,21.233,11.304c8.184,20.353,12.334,41.866,12.334,63.943
		v59.264C427.464,503.634,419.098,512,408.778,512z"/>
</g>
<path style="fill:#FFE08C;" d="M298.398,267.887l-0.087,0.001c-13.844-3.509-28.081-5.272-42.356-5.274V373.3
	c0.015,0,0.031,0.001,0.046,0.001c12.982,0,25.962-4.94,35.844-14.823v-0.001c54.358-54.358,55.123-55.155,63.83-63.873
	C338.682,282.423,319.68,273.325,298.398,267.887z"/>
</svg>