<?xml version="1.0" encoding="iso-8859-1"?>
<!-- Uploaded to: SVG Repo, www.svgrepo.com, Generator: SVG Repo Mixer Tools -->
<svg version="1.1" id="Layer_1" xmlns="http://www.w3.org/2000/svg" xmlns:xlink="http://www.w3.org/1999/xlink" 
	 viewBox="0 0 512 512" xml:space="preserve">
<rect x="399.211" y="252.802" style="fill:#ECEBED;" width="102.258" height="248.687"/>
<circle style="fill:#FFA036;" cx="450.34" cy="377.146" r="24.563"/>
<circle style="fill:#FF5957;" cx="450.34" cy="302.855" r="24.563"/>
<circle style="fill:#89CD38;" cx="450.34" cy="451.426" r="24.563"/>
<g>
	<path style="fill:#27B5F7;" d="M60.126,359.489c0-12.378,10.035-22.413,22.413-22.413s22.413,10.035,22.413,22.413
		s-10.035,22.413-22.413,22.413S60.126,371.868,60.126,359.489z"/>
	<path style="fill:#27B5F7;" d="M31.586,308.535l35.105,35.105c-3.302,3.302-5.578,7.63-6.31,12.464l-0.001,0.001l-48.084-12.666
		C15.359,329.987,22.163,317.959,31.586,308.535z"/>
	<path style="fill:#27B5F7;" d="M152.782,343.44l-48.083,12.666l-0.003-0.006c-0.733-4.832-3.008-9.157-6.308-12.458l35.105-35.105
		C142.917,317.959,149.721,329.988,152.782,343.44z"/>
</g>
<path style="fill:#FF5957;" d="M10.447,58.566c0-26.541,21.516-48.057,48.057-48.057s48.057,21.516,48.057,48.057
	s-21.516,48.057-48.057,48.057S10.447,85.108,10.447,58.566z"/>
<path style="fill:#FEBBA0;" d="M298.151,319.093v20.351c0,6.799,4.088,12.932,10.365,15.548l67.237,28.015
	c14.205,5.919,23.457,22.006,23.457,37.395v81.087H112.875v-81.087c0-15.388,9.253-31.477,23.457-37.395l67.237-28.015
	c6.277-2.615,10.365-8.749,10.365-15.548v-20.351H298.151z"/>
<path style="fill:#03203B;" d="M136.333,383.008l67.237-28.014c5.657-2.357,9.526-7.575,10.236-13.561v12.816
	c0,23.238,19.013,42.252,42.252,42.252l0,0c23.238,0,42.251-19.013,42.251-42.252v-12.557c0.79,5.877,4.631,10.977,10.207,13.3
	l67.237,28.014c14.205,5.919,23.457,22.006,23.457,37.395v81.087H112.875v-81.087C112.875,405.015,122.129,388.926,136.333,383.008z
	"/>
<path style="fill:#FEBBA0;" d="M162.016,199.146v-30.441c0-51.827,42.015-93.842,93.842-93.842
	c51.828,0,93.842,42.015,93.842,93.842h0.368v30.441c12.924,0,23.402,10.478,23.402,23.402c0,12.924-10.478,23.402-23.402,23.402
	v17.471c-1.126,14.734-8.311,27.851-19.191,35.036l-56.571,32.341c-11.359,7.502-25.172,7.502-36.531,0l-56.402-32.341
	c-10.879-7.185-18.232-20.302-19.359-35.036v-17.472c-12.924,0-23.402-10.478-23.402-23.402
	C138.615,209.624,149.092,199.146,162.016,199.146z"/>
<path style="fill:#FFA036;" d="M213.806,341.433v12.816c0,23.238,19.013,42.252,42.252,42.252l0,0
	c23.238,0,42.251-19.013,42.251-42.252v-12.557c0.79,5.877,4.631,10.977,10.207,13.3l34.623,14.427l-87.147,131.11l-87.117-131.08
	l34.695-14.456C209.227,352.636,213.095,347.418,213.806,341.433z"/>
<ellipse style="fill:#03203B;" cx="256.042" cy="119.255" rx="133.777" ry="52.192"/>
<path style="fill:#FFA036;" d="M151.519,137.71c0,0,46.07-13.389,104.524-13.389s104.422,13.389,104.422,13.389l-10.396,33.732
	H162.017L151.519,137.71z"/>
<path d="M450.34,412.153c-19.304,0-35.01-15.705-35.01-35.01c0-19.305,15.705-35.01,35.01-35.01s35.009,15.705,35.009,35.01
	C485.349,396.448,469.644,412.153,450.34,412.153z M450.34,363.028c-7.783,0-14.115,6.332-14.115,14.115
	c0,7.783,6.332,14.115,14.115,14.115c7.782,0,14.114-6.332,14.114-14.115C464.454,369.36,458.122,363.028,450.34,363.028z"/>
<path d="M450.34,337.868c-19.304,0-35.01-15.705-35.01-35.01s15.705-35.01,35.01-35.01s35.009,15.705,35.009,35.01
	S469.644,337.868,450.34,337.868z M450.34,288.744c-7.783,0-14.115,6.332-14.115,14.115c0,7.783,6.332,14.115,14.115,14.115
	c7.782,0,14.114-6.332,14.114-14.115C464.454,295.076,458.122,288.744,450.34,288.744z"/>
<path d="M450.34,486.438c-19.304,0-35.01-15.705-35.01-35.01s15.705-35.01,35.01-35.01s35.009,15.705,35.009,35.01
	S469.644,486.438,450.34,486.438z M450.34,437.314c-7.783,0-14.115,6.332-14.115,14.115s6.332,14.115,14.115,14.115
	c7.782,0,14.114-6.332,14.114-14.115S458.122,437.314,450.34,437.314z"/>
<path d="M501.553,511.937h-0.137c-5.769,0-10.447-4.677-10.447-10.447s4.678-10.447,10.447-10.447h0.137
	c5.769,0,10.447,4.677,10.447,10.447S507.323,511.937,501.553,511.937z"/>
<path d="M10.669,511.936h-0.138c-5.769,0-10.447-4.677-10.447-10.447c0-5.77,4.678-10.447,10.447-10.447h0.138
	c5.769,0,10.447,4.677,10.447,10.447C21.116,507.259,16.438,511.936,10.669,511.936z"/>
<path d="M217.942,235.454c-6.439,0-11.678-5.238-11.678-11.677c0-6.44,5.239-11.678,11.678-11.678
	c6.439,0,11.678,5.238,11.678,11.678C229.62,230.216,224.38,235.454,217.942,235.454z"/>
<path d="M294.143,235.454c-6.439,0-11.678-5.238-11.678-11.677c0-6.44,5.239-11.678,11.678-11.678
	c6.439,0,11.678,5.238,11.678,11.678C305.821,230.216,300.582,235.454,294.143,235.454z"/>
<path d="M255.999,292.427c-11.39,0-20.656-9.267-20.656-20.656c0-5.77,4.678-10.447,10.447-10.447h20.418
	c5.769,0,10.447,4.677,10.447,10.447C276.655,283.16,267.389,292.427,255.999,292.427z"/>
<path d="M117.009,58.566c0-32.259-26.245-58.505-58.505-58.505S0,26.307,0,58.566c0,28.692,20.767,52.609,48.057,57.552v114.295
	c0,5.77,4.678,10.447,10.447,10.447s10.447-4.677,10.447-10.447V116.118C96.242,111.176,117.009,87.259,117.009,58.566z
	 M58.505,96.177c-20.739,0-37.61-16.871-37.61-37.61s16.871-37.61,37.61-37.61s37.61,16.871,37.61,37.61
	S79.244,96.177,58.505,96.177z"/>
<path d="M38.165,49.166c-5.769,0-10.447,4.677-10.447,10.447S32.396,70.06,38.165,70.06h40.68c5.769,0,10.447-4.677,10.447-10.447
	s-4.678-10.447-10.447-10.447C78.845,49.166,38.165,49.166,38.165,49.166z"/>
<path d="M192.339,467.014h-0.137c-5.769,0-10.447-4.677-10.447-10.447s4.678-10.447,10.447-10.447h0.137
	c5.769,0,10.447,4.677,10.447,10.447S198.109,467.014,192.339,467.014z"/>
<path d="M501.469,242.351h-102.26c-5.769,0-10.447,4.677-10.447,10.447v125.671c-2.797-2.05-5.807-3.777-8.992-5.105l-67.236-28.014
	c-2.391-0.997-3.937-3.314-3.937-5.904v-16.219l27.465-15.701c0.195-0.111,0.385-0.229,0.573-0.352
	c13.562-8.956,22.478-25.015,23.849-42.957c0.021-0.264,0.03-0.531,0.03-0.796v-8.673c13.567-4.413,23.401-17.18,23.401-32.2
	c0-15.02-9.834-27.787-23.401-32.2v-17.331l3.467-11.25c29.831-14.147,36.283-30.795,36.283-42.517
	c0-18.544-16.277-35.107-45.832-46.639c-26.447-10.318-61.39-16.001-98.391-16.001c-37,0-71.943,5.682-98.391,16.001
	c-29.555,11.532-45.832,28.095-45.832,46.639c0,11.712,6.444,28.351,36.238,42.494l3.512,11.285v17.318
	c-13.567,4.413-23.401,17.18-23.401,32.2c0,15.02,9.834,27.787,23.401,32.2v8.673c0,0.265,0.01,0.532,0.03,0.796
	c1.367,17.869,10.345,33.929,24.018,42.958c0.184,0.121,0.37,0.236,0.56,0.346l27.309,15.658v16.267
	c0,0.279-0.074,0.937-0.079,0.994c-0.34,2.176-1.776,4.044-3.856,4.91l-34.51,14.379c0-0.079,0.003-0.16,0.003-0.239
	c0-45.494-37.013-82.506-82.506-82.506c-45.495,0-82.507,37.013-82.507,82.506s37.013,82.506,82.507,82.506
	c6.787,0,13.431-0.836,19.888-2.436v51.484H44.467c-5.769,0-10.447,4.677-10.447,10.447c0,5.77,4.678,10.447,10.447,10.447h423.15
	c5.769,0,10.447-4.678,10.447-10.447c0-5.769-4.678-10.447-10.447-10.447h-57.96v-70.639V263.246h81.366V468.06
	c0,5.77,4.678,10.447,10.447,10.447s10.447-4.677,10.447-10.447V252.798C511.916,247.028,507.238,242.351,501.469,242.351z
	 M169.707,160.996l-4.931-15.841c16.496-3.786,51.027-10.386,91.266-10.386c40.25,0,74.737,6.604,91.193,10.388l-4.881,15.839
	H169.707z M132.713,119.25c0-17.431,46.919-41.745,123.329-41.745s123.329,24.313,123.329,41.745c0,4.619-3.287,9.617-9.257,14.458
	c-0.134-0.324-0.285-0.641-0.452-0.953c-1.328-2.465-3.589-4.293-6.276-5.075c-1.935-0.564-48.08-13.806-107.343-13.806
	c-59.26,0-105.501,13.241-107.441,13.804c-2.693,0.783-4.959,2.616-6.287,5.087c-0.155,0.288-0.293,0.583-0.418,0.882
	C135.973,128.824,132.713,123.849,132.713,119.25z M186.882,289.57c-7.976-5.4-13.47-15.525-14.418-26.573v-17.049
	c0-5.77-4.678-10.447-10.447-10.447c-7.143,0-12.954-5.812-12.954-12.954s5.812-12.954,12.954-12.954
	c5.769,0,10.447-4.677,10.447-10.447v-17.256H339.62v17.256c0,5.77,4.678,10.447,10.447,10.447c7.143,0,12.954,5.812,12.954,12.954
	s-5.812,12.954-12.954,12.954c-5.769,0-10.447,4.677-10.447,10.447V263c-0.961,11.277-6.26,21.162-14.244,26.567l-56.254,32.159
	c-0.195,0.111-0.385,0.229-0.573,0.352c-7.833,5.172-17.183,5.172-25.016,0c-0.183-0.121-0.37-0.236-0.56-0.346L186.882,289.57z
	 M287.861,354.248c0,17.537-14.267,31.804-31.804,31.804s-31.805-14.267-31.805-31.804l0.07-19.124l7.989,4.581
	c7.335,4.765,15.532,7.148,23.73,7.148c8.196,0,16.39-2.381,23.724-7.144l8.01-4.579L287.861,354.248z M139.537,336.125
	l-25.601,6.744l18.899-18.899C135.501,327.734,137.759,331.804,139.537,336.125z M82.54,297.877
	c13.222,0,25.475,4.201,35.521,11.318l-20.885,20.886c-4.411-2.204-9.38-3.452-14.636-3.452c-5.256,0-10.225,1.247-14.635,3.451
	l-20.886-20.886C57.066,302.077,69.318,297.877,82.54,297.877z M32.244,323.969l18.9,18.9l-25.602-6.745
	C27.32,331.803,29.577,327.733,32.244,323.969z M72.092,420.197c-29.012-4.979-51.166-30.297-51.166-60.708
	c0-0.99,0.028-1.975,0.075-2.953l29.017,7.643c1.779,12.39,10.493,22.563,22.073,26.458V420.197z M82.54,371.454
	c-6.597,0-11.965-5.368-11.965-11.965c0-6.597,5.368-11.965,11.965-11.965s11.965,5.368,11.965,11.965
	C94.505,366.086,89.137,371.454,82.54,371.454z M102.503,417.795c-3.106,1.061-6.282,1.867-9.516,2.417v-29.577
	c11.579-3.894,20.293-14.066,22.072-26.456l29.016-7.644c0.046,0.979,0.075,1.962,0.075,2.952c0,3.104-0.255,6.193-0.713,9.241
	l-11.123,4.634C115.472,380.382,103.498,398.406,102.503,417.795z M123.323,491.043v-24.029h35.081
	c5.769,0,10.447-4.677,10.447-10.447s-4.678-10.447-10.447-10.447h-35.081v-25.716c0-11.776,7.32-23.706,17.028-27.751
	l24.591-10.246l72.201,108.637h-113.82V491.043z M184.59,374.219L184.59,374.219l20.072-8.363
	c5.303,23.49,26.326,41.091,51.395,41.091c25.066,0,46.085-17.596,51.392-41.081l19.974,8.322l0,0l-71.431,107.466L184.59,374.219z
	 M388.762,491.043h-113.92l72.229-108.667l24.662,10.276c9.709,4.046,17.029,15.976,17.029,27.751L388.762,491.043L388.762,491.043z
	"/>
</svg>